<svg id="Layer_1" data-name="Layer 1" xmlns="http://www.w3.org/2000/svg" viewBox="0 0 364.53 364.53"><defs><style>.cls-1{fill:#1c3035;opacity:0.24;}.cls-2{fill:#d4e7e8;}</style></defs><title>28 copy</title><path class="cls-1" d="M45,182.27C45,81.6,106.46,0,182.27,0a182.27,182.27,0,1,0,0,364.53C106.46,364.53,45,282.93,45,182.27Z"/><path class="cls-2" d="M353.47,119.6A181.74,181.74,0,0,0,330.9,76.75q-2.53-3.57-5.24-7T320.09,63q-1.44-1.66-2.91-3.28-5.88-6.47-12.36-12.36-1.62-1.47-3.27-2.9-3.32-2.87-6.76-5.58t-7-5.24A182.61,182.61,0,0,0,261.29,18c-2.66-1.28-5.35-2.49-8.08-3.65q-2-.86-4.11-1.68Q245,11,240.72,9.58A180.91,180.91,0,0,0,219,3.7,183.69,183.69,0,0,0,182.27,0h0C106.46,0,45,81.6,45,182.27s61.46,182.26,137.27,182.26h0A181.87,181.87,0,0,0,240.72,355q4.25-1.44,8.38-3.07,2.07-.83,4.11-1.68,4.09-1.72,8.08-3.65a182.61,182.61,0,0,0,26.49-15.66q3.57-2.53,7-5.24t6.76-5.57q1.65-1.44,3.27-2.91,6.46-5.88,12.36-12.36,1.47-1.62,2.91-3.27,2.87-3.32,5.57-6.76t5.24-7A182.6,182.6,0,0,0,353.47,119.6Z"/></svg>