<svg id="Layer_1" data-name="Layer 1" xmlns="http://www.w3.org/2000/svg" viewBox="0 0 364.53 364.53"><defs><style>.cls-1{fill:#1c3035;opacity:0.24;}.cls-2{fill:#d4e7e8;}</style></defs><title>29 copy</title><path class="cls-1" d="M29.73,182.27C29.73,81.6,98,0,182.27,0a181.56,181.56,0,0,1,84.82,20.91,182.28,182.28,0,1,0-84.85,343.62C98,364.52,29.73,282.92,29.73,182.27Z"/><path class="cls-2" d="M364.53,182.27a181.75,181.75,0,0,0-59.6-134.81L304.4,47q-4.27-3.85-8.78-7.44t-8.95-6.68q-5.9-4.12-12.13-7.8c-1.08-.63-2.16-1.25-3.25-1.86q-2.09-1.17-4.2-2.29A181.56,181.56,0,0,0,182.27,0C98,0,29.73,81.6,29.73,182.27S98,364.52,182.24,364.53h0A182.26,182.26,0,0,0,364.53,182.27Z"/></svg>