<svg id="Layer_1" data-name="Layer 1" xmlns="http://www.w3.org/2000/svg" xmlns:xlink="http://www.w3.org/1999/xlink" viewBox="0 0 775.91 228.35"><defs><style>.cls-1{fill:#11b6c4;}.cls-2{fill:url(#linear-gradient);}.cls-3{fill:url(#linear-gradient-2);}.cls-4{fill:#0c7f82;}</style><linearGradient id="linear-gradient" x1="-2290.37" y1="-1968.45" x2="-2290.46" y2="-1745.5" gradientTransform="translate(3365.59 255.35) rotate(-36.02)" gradientUnits="userSpaceOnUse"><stop offset="0" stop-color="#0c7f82"/><stop offset="0.81" stop-color="#083640" stop-opacity="0"/></linearGradient><linearGradient id="linear-gradient-2" x1="294.13" y1="93.89" x2="427.86" y2="16.68" gradientUnits="userSpaceOnUse"><stop offset="0" stop-color="#11b6c4"/><stop offset="1" stop-color="#0c7f82"/></linearGradient></defs><title>Artboard 13</title><rect class="cls-1" x="386.96" width="388.94" height="108.21"/><path class="cls-2" d="M431,22.29h0A54.11,54.11,0,0,0,343.5,85.93h0l91.2,142.42,103.69-75.41Z"/><path class="cls-3" d="M441.09,54.11A54.16,54.16,0,0,0,373.47,1.7h0L277.15,27.38,325.94,149l86.35-47,1-.55.23-.12h0A54.08,54.08,0,0,0,441.09,54.11Z"/><path class="cls-4" d="M277.15,27.38,300,21.29c-.7,0-1.39-.05-2.09-.05H70a66,66,0,0,0,0,132H297.92a65.77,65.77,0,0,0,27.35-5.94Z"/><path class="cls-1" d="M293.92,25.24c-.46,0-.9,0-1.35,0H67.36c-.45,0-.9,0-1.35,0a66,66,0,0,0,0,132h0v0H293.9v0h0a66,66,0,0,0,0-132Z"/></svg>