<svg id="Layer_1" data-name="Layer 1" xmlns="http://www.w3.org/2000/svg" xmlns:xlink="http://www.w3.org/1999/xlink" viewBox="0 0 775.91 241.73"><defs><style>.cls-1{fill:#11b6c4;}.cls-2{fill:url(#linear-gradient);}.cls-3{fill:url(#linear-gradient-2);}</style><linearGradient id="linear-gradient" x1="-2074.31" y1="-1886.57" x2="-2074.4" y2="-1662.26" gradientTransform="translate(3141.41 328.24) rotate(-36.02)" gradientUnits="userSpaceOnUse"><stop offset="0" stop-color="#0c7f82"/><stop offset="0.81" stop-color="#083640" stop-opacity="0"/></linearGradient><linearGradient id="linear-gradient-2" x1="282.43" y1="66.42" x2="423.22" y2="66.42" gradientUnits="userSpaceOnUse"><stop offset="0" stop-color="#11b6c4"/><stop offset="1" stop-color="#0c7f82"/></linearGradient></defs><title>Artboard 12</title><rect class="cls-1" x="386.96" y="12.31" width="388.94" height="108.21"/><path class="cls-2" d="M430.21,34.4h0a54.44,54.44,0,0,0-88.06,64h0L433.9,241.73l104.34-75.87Z"/><path class="cls-3" d="M440.33,66.42a54.44,54.44,0,0,0-48.47-54.11h0L299.54.4v132l92.32-11.91h0A54.43,54.43,0,0,0,440.33,66.42Z"/><path class="cls-1" d="M358.67,66.42A66.4,66.4,0,0,0,294.07.05V0H66.42a66.42,66.42,0,1,0,0,132.83c.39,0,.77,0,1.16,0H291.09c.39,0,.77,0,1.16,0l1.17,0h.65A66.41,66.41,0,0,0,358.67,66.42Z"/></svg>