<svg id="Layer_1" data-name="Layer 1" xmlns="http://www.w3.org/2000/svg" xmlns:xlink="http://www.w3.org/1999/xlink" viewBox="0 0 775.92 241.73">
   <defs>
        <style type="text/css">@import url('https://fonts.googleapis.com/css2?family=Montserrat:ital,wght@0,100;0,200;0,300;0,400;0,500;0,600;0,700;0,800;0,900;1,100;1,200;1,300;1,400;1,500;1,600;1,700;1,800;1,900');</style>
        <style type="text/css">@font-face {font-family: "Hafs"; src: url("/hafs.otf");font-weight: normal;}</style>
      <style id="style">.cls-1{fill:#2c7291;}.cls-2{fill:url(#linear-gradient);}.cls-3{fill:url(#linear-gradient-2);}</style>
      <linearGradient id="linear-gradient" x1="-1846.87" y1="-2586.09" x2="-1846.96" y2="-2361.77" gradientTransform="translate(3368.85 1027.76) rotate(-36.02)" gradientUnits="userSpaceOnUse">
         <stop offset="0" stop-color="#083640"/>
         <stop offset="0.81" stop-color="#083640" stop-opacity="0"/>
      </linearGradient>
      <linearGradient id="linear-gradient-2" x1="282.43" y1="66.42" x2="423.22" y2="66.42" gradientUnits="userSpaceOnUse">
         <stop id="stop1" offset="0" stop-color="#2c7291"/>
         <stop id="stop2" offset="1" stop-color="#1f5260"/>
      </linearGradient>
   </defs>
   <rect id="s1" fill="#2c7291" x="386.98" y="12.31" width="388.94" height="108.21"/>
   <path id="s2" fill="url(#linear-gradient)" d="M430.21,34.4h0a54.44,54.44,0,0,0-88.06,64h0L433.9,241.73l104.34-75.87Z"/>
   <path id="s3" fill="url(#linear-gradient-2)" d="M440.33,66.42a54.44,54.44,0,0,0-48.47-54.11h0L299.54.4v132l92.32-11.91h0A54.43,54.43,0,0,0,440.33,66.42Z"/>
   <path id="s1" fill="#2c7291" d="M358.67,66.42A66.4,66.4,0,0,0,294.07.05V0H66.42a66.42,66.42,0,1,0,0,132.83c.39,0,.77,0,1.16,0H291.09c.39,0,.77,0,1.16,0l1.17,0h.65A66.41,66.41,0,0,0,358.67,66.42Z"/>
    <text text-anchor="middle" dominant-baseline="middle" x="180" y="73" font-size="5em" fill="white" font-weight="bold" class="text" style="font-family: Montserrat, sans-serif">İKİNDİ</text> 
        <text text-anchor="middle" x="535" y="92" font-size="4.5em" fill="white" font-weight="normal" class="hour1" style="font-family: Montserrat, sans-serif">0</text> 
        <text text-anchor="middle" x="582" y="92" font-size="4.5em" fill="white" font-weight="normal" class="hour2" style="font-family: Montserrat, sans-serif">0</text> 
        <text x="610" y="87" font-size="4.5em" fill="white" font-weight="normal" class="time" style="font-family: Montserrat, sans-serif">:</text> 
        <text text-anchor="middle" x="653" y="92" font-size="4.5em" fill="white" font-weight="normal" class="minute1" style="font-family: Montserrat, sans-serif">0</text> 
        <text text-anchor="middle" x="701" y="92" font-size="4.5em" fill="white" font-weight="normal" class="minute2" style="font-family: Montserrat, sans-serif">0</text> 
</svg>