<svg id="Layer_1" data-name="Layer 1" xmlns="http://www.w3.org/2000/svg" xmlns:xlink="http://www.w3.org/1999/xlink" viewBox="0 0 775.91 277.39">
   <defs>
      <style>.cls-1{fill:#11b6c4;}.cls-2{fill:url(#linear-gradient);}.cls-3{fill:url(#linear-gradient-2);}.cls-4{fill:#0c7f82;}</style>
      <linearGradient id="linear-gradient" x1="-1856.57" y1="-1778.36" x2="-1856.66" y2="-1555.41" gradientTransform="translate(2902.94 405.78) rotate(-36.02)" gradientUnits="userSpaceOnUse">
         <stop offset="0" stop-color="#0c7f82"/>
         <stop offset="0.81" stop-color="#083640" stop-opacity="0"/>
      </linearGradient>
      <linearGradient id="linear-gradient-2" x1="294.13" y1="63.37" x2="427.86" y2="140.58" gradientUnits="userSpaceOnUse">
         <stop id="stop1" offset="0" stop-color="#11b6c4"/>
         <stop id="stop2" offset="1" stop-color="#0c7f82"/>
      </linearGradient>
   </defs>
   <title>Artboard 11</title>
   <rect class="cls-1" x="386.96" y="49.04" width="388.94" height="108.21"/>
   <path class="cls-2" d="M431,71.33h0A54.11,54.11,0,0,0,343.5,135h0l91.2,142.42L538.39,202Z"/>
   <path class="cls-3" d="M413.52,56h0l-.23-.13-1-.54L325.94,8.27l-48.79,121.6,96.32,25.69h0a54.12,54.12,0,0,0,40-99.56Z"/>
   <path class="cls-4" d="M277.15,129.87,325.27,9.94A65.77,65.77,0,0,0,297.92,4H70a66,66,0,0,0,0,132H297.92c.7,0,1.39,0,2.09-.05Z"/>
   <path class="cls-1" d="M293.92,0H66a66,66,0,0,0,0,132H293.92a66,66,0,0,0,0-132Z"/>
</svg>