<svg id="Layer_1" data-name="Layer 1" xmlns="http://www.w3.org/2000/svg" xmlns:xlink="http://www.w3.org/1999/xlink" viewBox="0 0 775.92 277.39"><defs><style>.cls-1{fill:#2c7291;}.cls-2{fill:url(#linear-gradient);}.cls-3{fill:url(#linear-gradient-2);}.cls-4{fill:#1f5260;}</style><linearGradient id="linear-gradient" x1="-1629.12" y1="-2477.87" x2="-1629.21" y2="-2254.93" gradientTransform="translate(3130.38 1105.3) rotate(-36.02)" gradientUnits="userSpaceOnUse"><stop offset="0" stop-color="#083640"/><stop offset="0.81" stop-color="#083640" stop-opacity="0"/></linearGradient><linearGradient id="linear-gradient-2" x1="294.13" y1="63.37" x2="427.86" y2="140.58" gradientUnits="userSpaceOnUse"><stop offset="0" stop-color="#2c7291"/><stop offset="1" stop-color="#1f5260"/></linearGradient></defs><rect class="cls-1" x="386.98" y="49.04" width="388.94" height="108.21"/><path class="cls-2" d="M431,71.33h0A54.11,54.11,0,0,0,343.5,135h0l91.2,142.42L538.39,202Z"/><path class="cls-3" d="M413.52,56h0l-.23-.13-1-.54L325.94,8.27l-48.79,121.6,96.32,25.69h0a54.12,54.12,0,0,0,40-99.56Z"/><path class="cls-4" d="M277.15,129.87,325.27,9.94A65.77,65.77,0,0,0,297.92,4H70a66,66,0,0,0,0,132H297.92c.7,0,1.39,0,2.09-.05Z"/><path class="cls-1" d="M293.92,0H66a66,66,0,0,0,0,132H293.92a66,66,0,0,0,0-132Z"/></svg>