<svg id="Layer_1" data-name="Layer 1" xmlns="http://www.w3.org/2000/svg" xmlns:xlink="http://www.w3.org/1999/xlink" viewBox="0 0 775.91 314.53"><defs><style>.cls-1{fill:#11b6c4;}.cls-2{fill:url(#linear-gradient);}.cls-3{fill:url(#linear-gradient-2);}.cls-4{fill:#0c7f82;}</style><linearGradient id="linear-gradient" x1="-1639.66" y1="-1670.69" x2="-1639.75" y2="-1447.75" gradientTransform="translate(2664.2 483.4) rotate(-36.02)" gradientUnits="userSpaceOnUse"><stop offset="0" stop-color="#0c7f82"/><stop offset="0.81" stop-color="#083640" stop-opacity="0"/></linearGradient><linearGradient id="linear-gradient-2" x1="301.13" y1="39.94" x2="393.1" y2="199.24" gradientUnits="userSpaceOnUse"><stop offset="0" stop-color="#11b6c4"/><stop offset="1" stop-color="#0c7f82"/></linearGradient></defs><title>Artboard 10</title><rect class="cls-1" x="386.96" y="86.18" width="388.94" height="108.21"/><path class="cls-2" d="M431,108.47h0a54.11,54.11,0,0,0-87.53,63.64h0l91.2,142.42,103.69-75.41Z"/><path class="cls-3" d="M425,101.77h0L339.19,18,257.63,121.16l100.61,65h0A54.09,54.09,0,0,0,425,101.77Z"/><path class="cls-4" d="M286.83,140l-29.2-18.86L337,20.79A65.75,65.75,0,0,0,297.92,8H70a66,66,0,0,0,0,132H286.83Z"/><path class="cls-1" d="M293.94,0H66a66,66,0,1,0,0,132H293.9a66,66,0,1,0,0-132Z"/></svg>