<svg id="Layer_1" data-name="Layer 1" xmlns="http://www.w3.org/2000/svg" xmlns:xlink="http://www.w3.org/1999/xlink" viewBox="0 0 775.91 228.35"><defs><style>.cls-1{fill:#11b6c4;}.cls-2{fill:url(#linear-gradient);}.cls-3{fill:url(#linear-gradient-2);}.cls-4{fill:#0c7f82;}</style><linearGradient id="linear-gradient" x1="-2507.27" y1="-2038.97" x2="-2507.36" y2="-1816.03" gradientTransform="translate(3582.49 184.83) rotate(-36.02)" gradientUnits="userSpaceOnUse"><stop offset="0" stop-color="#0c7f82"/><stop offset="0.81" stop-color="#083640" stop-opacity="0"/></linearGradient><linearGradient id="linear-gradient-2" x1="301.13" y1="154.43" x2="393.1" y2="-4.85" gradientUnits="userSpaceOnUse"><stop offset="0" stop-color="#11b6c4"/><stop offset="1" stop-color="#0c7f82"/></linearGradient></defs><title>Artboard 14</title><rect class="cls-1" x="386.96" width="388.94" height="108.21"/><path class="cls-2" d="M431,22.29h0A54.11,54.11,0,0,0,343.5,85.93h0l91.2,142.42,103.69-75.41Z"/><path class="cls-3" d="M441.09,54.11A54.1,54.1,0,0,0,358.26,8.26l0,0-100.61,65L339.19,176.4,424.3,93.27A54,54,0,0,0,441.09,54.11Z"/><path class="cls-4" d="M337,173.6a65.72,65.72,0,0,1-39.05,12.8H70a66,66,0,0,1,0-132H286.8L257.63,73.21Z"/><path class="cls-1" d="M293.92,62.37H66a66,66,0,0,0,0,132H293.92a66,66,0,0,0,0-132Z"/></svg>